<?xml version="1.0" encoding="utf-8"?>
<!-- Generator: Adobe Illustrator 18.0.0, SVG Export Plug-In . SVG Version: 6.00 Build 0)  -->
<!DOCTYPE svg PUBLIC "-//W3C//DTD SVG 1.1//EN" "http://www.w3.org/Graphics/SVG/1.1/DTD/svg11.dtd">
<svg version="1.1" id="Layer_1" xmlns="http://www.w3.org/2000/svg" xmlns:xlink="http://www.w3.org/1999/xlink" x="0px" y="0px"
	 viewBox="0 0 199.2 24" enable-background="new 0 0 199.2 24" xml:space="preserve">
<g>
	<polygon fill="#FFFFFF" points="24.8,1.3 15.6,6.6 6.4,1.3 1.9,3.9 1.9,19.8 6.4,22.5 11,19.8 11,14.5 15.6,17.2 20.2,14.5 
		20.2,19.8 24.8,22.5 29.4,19.8 29.4,3.9 	"/>
	<g>
		<path fill="#FFFFFF" d="M46.7,3.9h-5.1c-1.4,0-2.7,1.2-2.7,2.7v10.7c0,1.7,1.4,2.7,2.7,2.7h5.1c0.1,0,0.2-0.1,0.2-0.2v-2.2
			c0-0.1-0.1-0.2-0.2-0.2h-4.2c-0.6,0-0.9-0.2-0.9-0.7V7.3c0-0.5,0.1-0.7,0.8-0.7h4.4c0.1,0,0.2-0.1,0.2-0.2V4.1
			C46.9,4,46.8,3.9,46.7,3.9"/>
		<path fill="#FFFFFF" d="M94.7,3.9h-7.5c-0.1,0-0.2,0.1-0.2,0.2v15.5c0,0.1,0.1,0.2,0.2,0.2h2.2c0.1,0,0.2-0.1,0.2-0.2l0-7.1h3.9
			c0.1,0,0.2-0.1,0.2-0.2v-2.2c0-0.1-0.1-0.2-0.2-0.2h-3.9V6.5h5.1c0.1,0,0.2-0.1,0.2-0.2V4.1C94.9,4,94.8,3.9,94.7,3.9"/>
		<path fill="#FFFFFF" d="M111.8,3.9h-2.9c-0.1,0-0.2,0.1-0.2,0.2l-0.4,2.2l-1.8,5.1l-1.8-5.1l-0.4-2.2c0-0.1-0.1-0.2-0.2-0.2h-2.9
			c-0.1,0-0.2,0.1-0.2,0.2v15.5c0,0.1,0.1,0.2,0.2,0.2h2.2c0.1,0,0.2-0.1,0.2-0.2V11c0.7,2,1.5,4.1,1.6,4.5c0,0.2,0.2,0.2,0.2,0.2h2
			c0.1,0,0.2-0.1,0.2-0.2c0.1-0.4,0.9-2.4,1.6-4.5v8.6c0,0.1,0.1,0.2,0.2,0.2h2.2c0.1,0,0.2-0.1,0.2-0.2V4.1
			C112,4,111.9,3.9,111.8,3.9"/>
		<path fill="#FFFFFF" d="M122.6,3.9h-7.6c-0.1,0-0.2,0.1-0.2,0.2v15.5c0,0.1,0.1,0.2,0.2,0.2h7.6c0.1,0,0.2-0.1,0.2-0.2v-2.2
			c0-0.1-0.1-0.2-0.2-0.2h-5.1v-4.6h3.9c0.1,0,0.2-0.1,0.2-0.2v-2.2c0-0.1-0.1-0.2-0.2-0.2h-3.9V6.6h5.1c0.1,0,0.2-0.1,0.2-0.2V4.1
			C122.9,4,122.8,3.9,122.6,3.9"/>
		<path fill="#FFFFFF" d="M132.1,17.2h-4.4V4.1c0-0.1-0.1-0.2-0.2-0.2h-2.2c-0.1,0-0.2,0.1-0.2,0.2v15.5c0,0.1,0.1,0.2,0.2,0.2h6.9
			c0.1,0,0.2-0.1,0.2-0.2v-2.2C132.4,17.3,132.2,17.2,132.1,17.2"/>
		<path fill="#FFFFFF" d="M164.2,3.9h-2.2c-0.1,0-0.2,0.1-0.2,0.2v12.4c0,0.5-0.5,0.7-0.9,0.7H160c-0.5,0-1-0.2-1-0.7V4.1
			c0-0.1-0.1-0.2-0.2-0.2h-2.2c-0.1,0-0.2,0.1-0.2,0.2v13.1c0,1.5,1.2,2.7,2.7,2.7h2.7c1.5,0,2.7-1.2,2.7-2.7V4.1
			C164.4,4,164.3,3.9,164.2,3.9"/>
		<path fill="#FFFFFF" d="M186.6,3.9h-2.2c-0.1,0-0.1,0-0.2,0.1v0l0,0c0,0,0,0,0,0.1l0,0v6.2l-2.1-3.9l-0.4-2.2
			c0-0.1-0.1-0.2-0.2-0.2h-2.9c-0.1,0-0.2,0.1-0.2,0.2v15.5c0,0.1,0.1,0.2,0.2,0.2h2.2c0.1,0,0.2-0.1,0.2-0.2v-10
			c1.1,2.4,2.9,5.2,3.1,5.8v4.2c0,0.1,0.1,0.2,0.2,0.2h2.2c0.1,0,0.2-0.1,0.2-0.2V4.1C186.9,4,186.7,3.9,186.6,3.9"/>
		<path fill="#FFFFFF" d="M197.5,6.6c0.1,0,0.2-0.1,0.2-0.2V4.1c0-0.1-0.1-0.2-0.2-0.2h-7.6c-0.1,0-0.2,0.1-0.2,0.2v15.5
			c0,0.1,0.1,0.2,0.2,0.2h7.6c0.1,0,0.2-0.1,0.2-0.2v-2.2c0-0.1-0.1-0.2-0.2-0.2h-5.1v-4.6h3.9c0.1,0,0.2-0.1,0.2-0.2v-2.2
			c0-0.1-0.1-0.2-0.2-0.2h-3.9V6.6H197.5z"/>
		<path fill="#FFFFFF" d="M172.8,11.5c0,0.7-0.6,1.4-1.3,1.4h-1.6V6.6h1.6c0.7,0,1.3,0.6,1.3,1.3V11.5z M176.2,19.5l-2.1-5.2
			l0.2-0.1c0.8-0.5,1.3-1.6,1.3-2.7V7.9c0-2.2-1.8-4-4-4h-4.1c-0.1,0-0.2,0.1-0.2,0.2v15.5c0,0.1,0.1,0.2,0.2,0.2h2.2
			c0.1,0,0.2-0.1,0.2-0.2v-4.1h1.6l1.7,4.2c0.1,0.1,0.2,0.1,0.2,0.1h2.5C176.2,19.9,176.3,19.7,176.2,19.5"/>
		<path fill="#FFFFFF" d="M150.9,16.5c0,0.5-0.5,0.7-0.9,0.7h-0.8c-0.5,0-1-0.2-1-0.7V7.3c0-0.6,0.2-0.7,0.8-0.7h1.1
			c0.6,0,0.8,0.2,0.8,0.7V16.5z M150.9,3.9h-2.7c-1.4,0-2.7,1.2-2.7,2.7v10.7c0,1.5,1.2,2.7,2.7,2.7h2.7c1.5,0,2.7-1.2,2.7-2.7V6.5
			C153.6,5.1,152.4,3.9,150.9,3.9"/>
		<path fill="#FFFFFF" d="M140,8.7c0,0.7-0.6,1.2-1.3,1.2h-1.6V6.6h1.6c0.7,0,1.3,0.6,1.3,1.4V8.7z M140,15.9c0,0.7-0.6,1.3-1.3,1.3
			h-1.6v-4.6h1.6c0.7,0,1.3,0.6,1.3,1.4V15.9z M142.7,8.5V7.6c0-2.2-1.8-3.8-4-3.8h-4.1c-0.1,0-0.2,0.1-0.2,0.2v15.5
			c0,0.1,0.1,0.2,0.2,0.2h4.1c2.2,0,4-1.8,4-4v-1.9c0-0.9-0.4-1.9-1.3-2.7C142.4,10.6,142.7,9.4,142.7,8.5"/>
		<path fill="#FFFFFF" d="M82,16.5c0,0.5-0.5,0.7-0.9,0.7h-0.8c-0.5,0-0.9-0.2-0.9-0.7V7.3c0-0.6,0.2-0.7,0.8-0.7h1.1
			c0.6,0,0.7,0.2,0.7,0.7V16.5z M82,3.9h-2.7c-1.4,0-2.7,1.2-2.7,2.7v10.7c0,1.5,1.2,2.7,2.7,2.7H82c1.5,0,2.7-1.2,2.7-2.7V6.5
			C84.7,5.1,83.4,3.9,82,3.9"/>
		<path fill="#FFFFFF" d="M70.3,3.9h-2.5c-0.1,0-0.2,0.1-0.2,0.2l-0.3,2.3l-1.2,5.1l-1.3-5.1l-0.3-2.3c0-0.1-0.1-0.2-0.2-0.2h-2.5
			c-0.1,0-0.2,0.1-0.2,0.3c0.2,1.3,0.3,2.4,0.7,3.9c0.7,2.4,2.2,7.1,2.4,7.7v3.9c0,0.1,0.1,0.2,0.2,0.2h2.2c0.1,0,0.2-0.1,0.2-0.2
			v-3.9c0.2-0.6,1.8-5.1,2.4-7.7c0.4-1.8,0.5-2.3,0.7-4C70.5,4,70.4,3.9,70.3,3.9"/>
		<path fill="#FFFFFF" d="M60,3.9h-6.9c-0.1,0-0.2,0.1-0.2,0.2v2.2c0,0.1,0.1,0.2,0.2,0.2h2.1v13.1c0,0.1,0.1,0.2,0.2,0.2h2.2
			c0.1,0,0.2-0.1,0.2-0.2V6.6H60c0.1,0,0.2-0.1,0.2-0.2V4.1C60.3,4,60.1,3.9,60,3.9"/>
		<path fill="#FFFFFF" d="M51.2,3.9H49c-0.1,0-0.2,0.1-0.2,0.2v13.1h0v2.4c0,0.1,0.1,0.2,0.2,0.2h2.2c0.1,0,0.2-0.1,0.2-0.2V4.1
			C51.4,4,51.3,3.9,51.2,3.9"/>
	</g>
</g>
</svg>
